<svg width="24" height="14" viewBox="0 0 24 14" fill="none" xmlns="http://www.w3.org/2000/svg">
<path fill-rule="evenodd" clip-rule="evenodd" d="M7.80901 12.9909C7.31197 13.4879 6.50613 13.4879 6.00909 12.9909L0.91893 7.9007L0.918182 7.89996C0.796158 7.77793 0.704091 7.6373 0.641982 7.48718C0.579755 7.33713 0.54541 7.17257 0.54541 7.00001C0.54541 6.82812 0.579486 6.6642 0.641244 6.51461C0.67186 6.4403 0.70981 6.3683 0.755096 6.29971C0.801693 6.22914 0.856055 6.16218 0.918182 6.10005L0.91893 6.09931L6.00909 1.00914C6.50613 0.51211 7.31197 0.51211 7.80901 1.00914C8.30603 1.50617 8.30603 2.31202 7.80901 2.80905L4.89077 5.72728H22.1818C22.8847 5.72728 23.4545 6.2971 23.4545 7.00001C23.4545 7.70291 22.8847 8.27273 22.1818 8.27273H4.89077L7.80901 11.191C8.30603 11.688 8.30603 12.4938 7.80901 12.9909Z" fill="#434190"/>
</svg>
