<svg width="24" height="14" viewBox="0 0 24 14" fill="none" xmlns="http://www.w3.org/2000/svg">
<path fill-rule="evenodd" clip-rule="evenodd" d="M16.191 1.00914C16.688 0.51211 17.4939 0.51211 17.9909 1.00914L23.081 6.09931L23.0818 6.10005C23.2038 6.22207 23.2959 6.36271 23.358 6.51283C23.4202 6.66288 23.4546 6.82744 23.4546 7C23.4546 7.17189 23.4205 7.33581 23.3587 7.4854C23.3281 7.55971 23.2901 7.63171 23.2448 7.7003C23.1982 7.77087 23.1439 7.83783 23.0818 7.89996L23.081 7.9007L17.9909 12.9909C17.4939 13.4879 16.688 13.4879 16.191 12.9909C15.694 12.4938 15.694 11.688 16.191 11.191L19.1092 8.27273H1.8182C1.11529 8.27273 0.545471 7.70291 0.545471 7C0.545471 6.2971 1.11529 5.72728 1.8182 5.72728H19.1092L16.191 2.80905C15.694 2.31202 15.694 1.50617 16.191 1.00914Z" fill="#434190"/>
</svg>
